<svg id="Capa_1" data-name="Capa 1" xmlns="http://www.w3.org/2000/svg" viewBox="0 0 24 24"><defs><style>.cls-1,.cls-2{fill:#fff;}.cls-1{stroke:#fff;stroke-miterlimit:10;stroke-width:0.5px;}</style></defs><path class="cls-1" d="M6.91,4.85c-2.16,1-2.49,2-2.49,7.18s.38,6.21,2.68,7.18c1.35.57,8.69.5,10-.1,2.14-1,2.49-2,2.49-7.13s-.35-6.16-2.49-7.13c-.8-.38-1.56-.45-5.09-.45S7.71,4.47,6.91,4.85ZM17,5.7c1.47.76,1.63,1.43,1.63,6.24s-.14,5.37-1.49,6.2c-.69.43-1.21.48-5.14.48-4.88,0-5.5-.17-6.28-1.64-.52-1-.52-9,0-10C6.48,5.52,7.14,5.35,12,5.35,15.41,5.35,16.43,5.42,17,5.7Z"/><path class="cls-2" d="M15.55,6.77a1.57,1.57,0,0,0-.47.83,1.57,1.57,0,0,0,.47.83,1.57,1.57,0,0,0,.83.47,1.8,1.8,0,0,0,1.31-1.37A1.47,1.47,0,0,0,16.43,6.3,1.65,1.65,0,0,0,15.55,6.77Zm1.19.66c0,.31-.29.53-.52.38s0-.57.3-.57A.22.22,0,0,1,16.74,7.43Z"/><path class="cls-1" d="M11.64,7.84c-.11,0-.52.14-.87.21a4.82,4.82,0,0,0-2.49,2.11,5.08,5.08,0,0,0-.07,3.5A4.17,4.17,0,0,0,12,16.06a4,4,0,0,0,4.07-3.93V12a4,4,0,0,0-3.48-4.07A3.78,3.78,0,0,0,11.64,7.84Zm2.21,1.51A3.22,3.22,0,1,1,10,14.53a3.32,3.32,0,0,1-1-1.27C7.66,10.37,11.22,7.48,13.85,9.35Z"/></svg>