<svg width="61" height="61" viewBox="0 0 61 61" fill="none" xmlns="http://www.w3.org/2000/svg">
<g id="Icon/Social/Linkedin">
<path id="linkedin" fill-rule="evenodd" clip-rule="evenodd" d="M39 38H35.9231V32.3967C35.9231 30.8596 35.2715 30.0022 34.1031 30.0022C32.8315 30.0022 32.0769 30.8956 32.0769 32.3967V38H29V27.5924H32.0769V28.7629C32.0769 28.7629 33.0423 27 35.2177 27C37.3938 27 39 28.3818 39 31.2415C39 34.1004 39 38 39 38ZM24.5003 25C23.6715 25 23 24.3282 23 23.4997C23 22.6718 23.6715 22 24.5003 22C25.3285 22 26 22.6718 26 23.4997C26.0006 24.3282 25.3285 25 24.5003 25ZM23 38H26V28H23V38Z" fill="#000000"/>
</g>
</svg>
