<svg width="28" height="30" viewBox="0 0 28 30" fill="none" xmlns="http://www.w3.org/2000/svg">
<g id="Vector">
<path id="Vector_2" d="M19.1448 0.943115H8.51553C4.12013 0.943115 0.544189 4.75764 0.544189 9.44628V20.7834C0.544189 25.472 4.12013 29.2865 8.51553 29.2865H19.1436C23.539 29.2865 27.1149 25.472 27.1149 20.7834L27.1162 9.44628C27.1162 4.75764 23.5402 0.943115 19.1448 0.943115ZM24.4582 20.7847C24.4582 23.911 22.0743 26.454 19.1436 26.454L8.51553 26.4526C5.58482 26.4526 3.20088 23.9097 3.20088 20.7834L3.20213 9.44631C3.20213 6.32007 5.58607 3.77708 8.51678 3.77708H19.1448C22.0755 3.77708 24.4595 6.32007 24.4595 9.44631L24.4582 20.7847ZM13.8302 8.02999C10.1672 8.02999 7.18783 11.2094 7.18783 15.1155C7.18783 19.0229 10.1684 22.201 13.8302 22.201C17.4932 22.201 20.4725 19.0216 20.4725 15.1155C20.4725 11.2081 17.4932 8.02999 13.8302 8.02999ZM13.8302 19.3671C11.6319 19.3671 9.84452 17.4605 9.84452 15.1155C9.84452 12.7705 11.6319 10.8639 13.8302 10.8639C16.0285 10.8639 17.8159 12.7705 17.8159 15.1155C17.8159 17.4605 16.0285 19.3671 13.8302 19.3671ZM21.4167 7.02288C21.6546 7.29259 21.8015 7.66062 21.8015 8.02996C21.8015 8.39798 21.6546 8.76735 21.4167 9.03571C21.1638 9.29081 20.8176 9.44625 20.4726 9.44625C20.1263 9.44625 19.7813 9.28947 19.5297 9.03571C19.2906 8.766 19.1449 8.39798 19.1449 8.02996C19.1449 7.66062 19.2906 7.29256 19.5297 7.0242C20.0342 6.49939 20.911 6.49939 21.4167 7.02288Z" fill="#00942C"/>
</g>
</svg>
