<svg id="Capa_1" data-name="Capa 1" xmlns="http://www.w3.org/2000/svg" viewBox="0 0 355 277"><defs><style>.cls-1{fill:#fff;}</style></defs><path class="cls-1" d="M18.6,13.1a20.58,20.58,0,0,0-11,23.8c1.6,6.7,8.5,13.8,15.1,15.4,3.5.9,43.2,1.2,155.1,1.2,169.5,0,157.4.6,164.5-7.6,9.6-10.9,6.8-26.4-5.9-32.8l-5.3-2.6H23.9Z"/><path class="cls-1" d="M19.5,119.1c-17.3,7.5-16.1,34.2,1.8,39.4,2.6.8,50.5,1,158.4.8l154.6-.3,4.4-3c13.8-9.7,11.8-30.6-3.4-37-3.3-1.3-21-1.5-158-1.5C41.7,117.6,22.6,117.8,19.5,119.1Z"/><path class="cls-1" d="M22.1,224.7c-5.9,1.6-13,9.1-14.5,15.4a20.58,20.58,0,0,0,11,23.8l5.3,2.6H331.1l5.3-2.6a20.58,20.58,0,0,0,11-23.8c-1.6-6.7-8.5-13.8-15.1-15.4C326.1,223.1,28,223.2,22.1,224.7Z"/></svg>